<svg width="18" height="19" viewBox="0 0 18 19" fill="none" xmlns="http://www.w3.org/2000/svg">
<g clip-path="url(#clip0_2723_2147)">
<path d="M9.37264 10.585H8.6273C8.42962 10.585 8.24004 10.6439 8.10026 10.7487C7.96048 10.8535 7.88196 10.9957 7.88196 11.144C7.88196 11.2922 7.96048 11.4344 8.10026 11.5392C8.24004 11.6441 8.42962 11.703 8.6273 11.703H9.37264C9.57032 11.703 9.7599 11.6441 9.89968 11.5392C10.0395 11.4344 10.118 11.2922 10.118 11.144C10.118 10.9957 10.0395 10.8535 9.89968 10.7487C9.7599 10.6439 9.57032 10.585 9.37264 10.585Z" fill="white"/>
<path d="M9.37264 7.23096H8.6273C8.42962 7.23096 8.24004 7.28985 8.10026 7.39469C7.96048 7.49952 7.88196 7.64171 7.88196 7.78996C7.88196 7.93822 7.96048 8.08041 8.10026 8.18524C8.24004 8.29007 8.42962 8.34897 8.6273 8.34897H9.37264C9.57032 8.34897 9.7599 8.29007 9.89968 8.18524C10.0395 8.08041 10.118 7.93822 10.118 7.78996C10.118 7.64171 10.0395 7.49952 9.89968 7.39469C9.7599 7.28985 9.57032 7.23096 9.37264 7.23096Z" fill="white"/>
<path d="M9.37264 3.87683H8.6273C8.42962 3.87683 8.24004 3.93573 8.10026 4.04056C7.96048 4.14539 7.88196 4.28758 7.88196 4.43584C7.88196 4.58409 7.96048 4.72628 8.10026 4.83111C8.24004 4.93595 8.42962 4.99484 8.6273 4.99484H9.37264C9.57032 4.99484 9.7599 4.93595 9.89968 4.83111C10.0395 4.72628 10.118 4.58409 10.118 4.43584C10.118 4.28758 10.0395 4.14539 9.89968 4.04056C9.7599 3.93573 9.57032 3.87683 9.37264 3.87683Z" fill="white"/>
<path d="M6.01864 10.585H5.2733C5.07562 10.585 4.88604 10.6439 4.74626 10.7487C4.60648 10.8535 4.52795 10.9957 4.52795 11.144C4.52795 11.2922 4.60648 11.4344 4.74626 11.5392C4.88604 11.6441 5.07562 11.703 5.2733 11.703H6.01864C6.21631 11.703 6.40589 11.6441 6.54567 11.5392C6.68545 11.4344 6.76398 11.2922 6.76398 11.144C6.76398 10.9957 6.68545 10.8535 6.54567 10.7487C6.40589 10.6439 6.21631 10.585 6.01864 10.585Z" fill="white"/>
<path d="M6.01864 7.23096H5.2733C5.07562 7.23096 4.88604 7.28985 4.74626 7.39469C4.60648 7.49952 4.52795 7.64171 4.52795 7.78996C4.52795 7.93822 4.60648 8.08041 4.74626 8.18524C4.88604 8.29007 5.07562 8.34897 5.2733 8.34897H6.01864C6.21631 8.34897 6.40589 8.29007 6.54567 8.18524C6.68545 8.08041 6.76398 7.93822 6.76398 7.78996C6.76398 7.64171 6.68545 7.49952 6.54567 7.39469C6.40589 7.28985 6.21631 7.23096 6.01864 7.23096Z" fill="white"/>
<path d="M6.01864 3.87683H5.2733C5.07562 3.87683 4.88604 3.93573 4.74626 4.04056C4.60648 4.14539 4.52795 4.28758 4.52795 4.43584C4.52795 4.58409 4.60648 4.72628 4.74626 4.83111C4.88604 4.93595 5.07562 4.99484 5.2733 4.99484H6.01864C6.21631 4.99484 6.40589 4.93595 6.54567 4.83111C6.68545 4.72628 6.76398 4.58409 6.76398 4.43584C6.76398 4.28758 6.68545 4.14539 6.54567 4.04056C6.40589 3.93573 6.21631 3.87683 6.01864 3.87683Z" fill="white"/>
<path d="M12.7267 10.585H11.9814C11.7837 10.585 11.5941 10.6439 11.4543 10.7487C11.3145 10.8535 11.236 10.9957 11.236 11.144C11.236 11.2922 11.3145 11.4344 11.4543 11.5392C11.5941 11.6441 11.7837 11.703 11.9814 11.703H12.7267C12.9244 11.703 13.114 11.6441 13.2537 11.5392C13.3935 11.4344 13.472 11.2922 13.472 11.144C13.472 10.9957 13.3935 10.8535 13.2537 10.7487C13.114 10.6439 12.9244 10.585 12.7267 10.585Z" fill="white"/>
<path d="M12.7267 7.23096H11.9814C11.7837 7.23096 11.5941 7.28985 11.4543 7.39469C11.3145 7.49952 11.236 7.64171 11.236 7.78996C11.236 7.93822 11.3145 8.08041 11.4543 8.18524C11.5941 8.29007 11.7837 8.34897 11.9814 8.34897H12.7267C12.9244 8.34897 13.114 8.29007 13.2537 8.18524C13.3935 8.08041 13.472 7.93822 13.472 7.78996C13.472 7.64171 13.3935 7.49952 13.2537 7.39469C13.114 7.28985 12.9244 7.23096 12.7267 7.23096Z" fill="white"/>
<path d="M12.7267 3.87683H11.9814C11.7837 3.87683 11.5941 3.93573 11.4543 4.04056C11.3145 4.14539 11.236 4.28758 11.236 4.43584C11.236 4.58409 11.3145 4.72628 11.4543 4.83111C11.5941 4.93595 11.7837 4.99484 11.9814 4.99484H12.7267C12.9244 4.99484 13.114 4.93595 13.2537 4.83111C13.3935 4.72628 13.472 4.58409 13.472 4.43584C13.472 4.28758 13.3935 4.14539 13.2537 4.04056C13.114 3.93573 12.9244 3.87683 12.7267 3.87683Z" fill="white"/>
<path fill-rule="evenodd" clip-rule="evenodd" d="M1.85712 0.820727C1.97244 0.70541 2.12884 0.640625 2.29193 0.640625H15.7081C15.8712 0.640625 16.0276 0.70541 16.1429 0.820727C16.2582 0.936044 16.323 1.09245 16.323 1.25553V17.4108H17.3851C17.5482 17.4108 17.7046 17.4756 17.8199 17.5909C17.9352 17.7062 18 17.8626 18 18.0257C18 18.1888 17.9352 18.3452 17.8199 18.4605C17.7046 18.5758 17.5482 18.6406 17.3851 18.6406H0.614907C0.451823 18.6406 0.295419 18.5758 0.180102 18.4605C0.0647848 18.3452 0 18.1888 0 18.0257C0 17.8626 0.0647848 17.7062 0.180102 17.5909C0.295419 17.4756 0.451823 17.4108 0.614907 17.4108H1.67702V1.25553C1.67702 1.09245 1.7418 0.936044 1.85712 0.820727ZM15.0932 1.87044H2.90683V17.4108H5.86956V14.6717C5.86956 14.5086 5.93435 14.3522 6.04967 14.2369C6.16498 14.1216 6.32139 14.0568 6.48447 14.0568H11.5155C11.6786 14.0568 11.835 14.1216 11.9503 14.2369C12.0657 14.3522 12.1304 14.5086 12.1304 14.6717V17.4108H15.0932V1.87044ZM10.9006 15.2866H7.09938V17.4108H10.9006V15.2866Z" fill="white"/>
</g>
<defs>
<clipPath id="clip0_2723_2147">
<rect width="18" height="18" fill="white" transform="translate(0 0.640625)"/>
</clipPath>
</defs>
</svg>
