<svg width="118" height="118" viewBox="0 0 118 118" fill="none" xmlns="http://www.w3.org/2000/svg">
<path fill-rule="evenodd" clip-rule="evenodd" d="M16.8571 16.8572C12.2022 16.8572 8.42857 20.6308 8.42857 25.2857V101.143C8.42857 105.798 12.2022 109.571 16.8571 109.571H101.143C105.798 109.571 109.571 105.798 109.571 101.143V25.2857C109.571 20.6308 105.798 16.8572 101.143 16.8572H16.8571ZM0 25.2857C0 15.9758 7.5472 8.42859 16.8571 8.42859H101.143C110.453 8.42859 118 15.9758 118 25.2857V101.143C118 110.453 110.453 118 101.143 118H16.8571C7.5472 118 0 110.453 0 101.143V25.2857Z" fill="white"/>
<path fill-rule="evenodd" clip-rule="evenodd" d="M25.2857 0C27.6132 0 29.5 1.8868 29.5 4.21429V12.6429C29.5 14.9703 27.6132 16.8571 25.2857 16.8571C22.9582 16.8571 21.0714 14.9703 21.0714 12.6429V4.21429C21.0714 1.8868 22.9582 0 25.2857 0Z" fill="white"/>
<path fill-rule="evenodd" clip-rule="evenodd" d="M92.7143 0C95.0418 0 96.9286 1.8868 96.9286 4.21429V12.6429C96.9286 14.9703 95.0418 16.8571 92.7143 16.8571C90.3868 16.8571 88.5 14.9703 88.5 12.6429V4.21429C88.5 1.8868 90.3868 0 92.7143 0Z" fill="white"/>
<path fill-rule="evenodd" clip-rule="evenodd" d="M0 33.7143C0 31.3868 1.8868 29.5 4.21429 29.5H113.786C116.113 29.5 118 31.3868 118 33.7143C118 36.0418 116.113 37.9286 113.786 37.9286H4.21429C1.8868 37.9286 0 36.0418 0 33.7143Z" fill="white"/>
</svg>
