<svg width="19" height="19" viewBox="0 0 19 19" fill="none" xmlns="http://www.w3.org/2000/svg">
<mask id="mask0_2725_2253" style="mask-type:alpha" maskUnits="userSpaceOnUse" x="0" y="0" width="19" height="19">
<rect x="0.3479" y="0.640625" width="18" height="18" fill="#C4C4C4"/>
</mask>
<g mask="url(#mask0_2725_2253)">
<path d="M14.0278 0.640625C15.0778 0.641197 16.0848 1.05859 16.8273 1.80111C17.5698 2.54363 17.9872 3.55054 17.9878 4.60062C17.9878 6.78582 16.213 8.56062 14.0278 8.56062C13.4424 8.56062 12.8916 8.41446 12.3854 8.1783L8.62776 13.1283V17.2006H10.7878C11.1854 17.2006 11.5078 17.523 11.5078 17.9206V17.9206C11.5078 18.3183 11.1854 18.6406 10.7878 18.6406H5.02776C4.63012 18.6406 4.30776 18.3183 4.30776 17.9206V17.9206C4.30776 17.523 4.63012 17.2006 5.02776 17.2006H7.18776V13.1283L0.842404 4.7583L0.707764 4.55598V4.52062C0.707764 3.96834 1.15548 3.52062 1.70776 3.52062H10.2478C10.6834 1.85023 12.2393 0.640625 14.0278 0.640625ZM14.0278 2.08062C13.027 2.08062 12.163 2.68542 11.7778 3.52062H14.1078C14.66 3.52062 15.1078 3.96834 15.1078 4.52062V4.55598L14.9724 4.75759L13.2854 6.98598C13.5236 7.07224 13.7745 7.11776 14.0278 7.12062C14.3598 7.12449 14.6892 7.06194 14.9967 6.93667C15.3042 6.81139 15.5835 6.62591 15.8183 6.39114C16.0531 6.15636 16.2385 5.87702 16.3638 5.56954C16.4891 5.26205 16.5516 4.93263 16.5478 4.60062C16.5516 4.26862 16.4891 3.9392 16.3638 3.63171C16.2385 3.32423 16.0531 3.04489 15.8183 2.81011C15.5835 2.57534 15.3042 2.38986 14.9967 2.26458C14.6892 2.13931 14.3598 2.07676 14.0278 2.08062ZM12.9924 4.96062H2.82312L3.90312 6.40062L5.00544 7.84062L7.90776 11.6883L12.9924 4.96062Z" fill="white"/>
</g>
</svg>
