<svg width="18" height="19" viewBox="0 0 18 19" fill="none" xmlns="http://www.w3.org/2000/svg">
<path d="M18 3.91034C18 2.93929 17.2128 2.1521 16.2418 2.1521H1.75824C0.787189 2.1521 0 2.93929 0 3.91034V15.3708C0 16.3418 0.787189 17.129 1.75824 17.129H16.2418C17.2128 17.129 18 16.3418 18 15.3708V3.91034V3.91034ZM1.76766 3.55719H16.2556C16.4495 3.55719 16.6056 3.71183 16.6056 3.90575V3.92101L9.2599 11.2675C9.1703 11.357 9.06608 11.3704 9.01169 11.3704C8.95729 11.3704 8.85272 11.357 8.7631 11.2675L1.41573 3.92001V3.90575C1.41573 3.71183 1.57376 3.55719 1.76766 3.55719ZM16.2556 15.724H1.76766C1.57376 15.724 1.41573 15.5634 1.41573 15.3695V5.90922L7.7687 12.2621C8.10079 12.5942 8.54239 12.777 9.01202 12.777C9.48171 12.777 9.92243 12.5941 10.2545 12.262L16.6056 5.91021V15.3695C16.6056 15.5634 16.4495 15.724 16.2556 15.724Z" fill="white"/>
</svg>
