<svg width="18" height="19" viewBox="0 0 18 19" fill="none" xmlns="http://www.w3.org/2000/svg">
<g clip-path="url(#clip0_2724_2185)">
<path d="M15.3519 0.640625H2.64719C1.18794 0.640625 0 1.82769 0 3.28781V15.9934C0 17.4527 1.18706 18.6406 2.64719 18.6406H15.3528C16.8121 18.6406 18 17.4536 18 15.9934V3.28781C17.9991 1.82769 16.8121 0.640625 15.3519 0.640625ZM16.9402 15.9926C16.9402 16.8679 16.2282 17.5809 15.3519 17.5809H2.64719C1.77182 17.5809 1.05888 16.8688 1.05888 15.9926V14.0776L5.33125 9.33025L11.1024 14.5763L14.2939 11.9169L16.9411 14.1224V15.9926H16.9402ZM16.9402 12.7448L14.2931 10.5393L11.1314 13.1733L5.25662 7.83149L1.05888 12.4955V3.28781C1.05888 2.41244 1.77094 1.6995 2.64719 1.6995H15.3528C16.2282 1.6995 16.9411 2.41156 16.9411 3.28781V12.7448H16.9402Z" fill="white"/>
<path d="M12.7056 8.58136C14.1648 8.58136 15.3528 7.3943 15.3528 5.93418C15.3528 4.47405 14.1657 3.28699 12.7056 3.28699C11.2464 3.28699 10.0584 4.47405 10.0584 5.93418C10.0584 7.3943 11.2455 8.58136 12.7056 8.58136ZM12.7056 4.34674C13.581 4.34674 14.2939 5.0588 14.2939 5.93505C14.2939 6.8113 13.5818 7.52337 12.7056 7.52337C11.8293 7.52337 11.1173 6.8113 11.1173 5.93505C11.1173 5.0588 11.8293 4.34674 12.7056 4.34674Z" fill="white"/>
</g>
<defs>
<clipPath id="clip0_2724_2185">
<rect width="18" height="18" fill="white" transform="translate(0 0.640625)"/>
</clipPath>
</defs>
</svg>
