<svg width="18" height="19" viewBox="0 0 18 19" fill="none" xmlns="http://www.w3.org/2000/svg">
<path d="M9 2.89062C10.3211 2.89062 11.6126 3.28238 12.711 4.01636C13.8095 4.75033 14.6657 5.79355 15.1712 7.01411C15.6768 8.23466 15.8091 9.57772 15.5513 10.8735C15.2936 12.1692 14.6574 13.3594 13.7233 14.2936C12.7891 15.2277 11.5989 15.8639 10.3031 16.1217C9.00741 16.3794 7.66435 16.2471 6.4438 15.7415C5.22324 15.236 4.18002 14.3798 3.44605 13.2813C2.71207 12.1829 2.32032 10.8914 2.32032 9.57031C2.32218 7.79932 3.02653 6.1014 4.27881 4.84912C5.53109 3.59683 7.22901 2.89249 9 2.89062V2.89062ZM9 1.97656C7.4981 1.97656 6.02993 2.42193 4.78114 3.25634C3.53236 4.09075 2.55905 5.27673 1.98429 6.66431C1.40954 8.05189 1.25916 9.57874 1.55217 11.0518C1.84517 12.5248 2.56841 13.8779 3.63041 14.9399C4.69242 16.0019 6.04549 16.7251 7.51854 17.0182C8.99158 17.3112 10.5184 17.1608 11.906 16.586C13.2936 16.0113 14.4796 15.038 15.314 13.7892C16.1484 12.5404 16.5938 11.0722 16.5938 9.57031C16.5938 7.55632 15.7937 5.62482 14.3696 4.20072C12.9455 2.77662 11.014 1.97656 9 1.97656V1.97656Z" fill="white"/>
<path d="M9.1519 2.89062C9.44581 2.89062 9.96471 3.40531 10.4077 4.53453C10.9294 5.86484 11.2163 7.65359 11.2163 9.57031C11.2163 11.487 10.935 13.2758 10.4077 14.6061C9.96471 15.7311 9.44721 16.25 9.1519 16.25C8.85659 16.25 8.33909 15.7353 7.89612 14.6061C7.37581 13.2758 7.08752 11.487 7.08752 9.57031C7.08752 7.65359 7.36877 5.86484 7.89612 4.53453C8.34049 3.40391 8.8594 2.89062 9.1519 2.89062ZM9.1519 1.97656C7.50659 1.97656 6.17346 5.37688 6.17346 9.57031C6.17346 13.7637 7.50659 17.1641 9.1519 17.1641C10.7972 17.1641 12.1303 13.7637 12.1303 9.57031C12.1303 5.37688 10.7972 1.97656 9.1519 1.97656V1.97656Z" fill="white"/>
<path fill-rule="evenodd" clip-rule="evenodd" d="M15.8203 12.3997H2.48346V11.4856H15.8203V12.3997Z" fill="white"/>
<path fill-rule="evenodd" clip-rule="evenodd" d="M15.8203 7.65356H2.48346V6.7395H15.8203V7.65356Z" fill="white"/>
</svg>
