<svg width="18" height="19" viewBox="0 0 18 19" fill="none" xmlns="http://www.w3.org/2000/svg">
<g clip-path="url(#clip0_2724_2195)">
<path d="M15.0217 18.6406H2.97034C2.79257 18.6406 2.62208 18.57 2.49637 18.4443C2.37067 18.3186 2.30005 18.1481 2.30005 17.9703V7.33508C2.30005 7.15731 2.37067 6.98682 2.49637 6.86112C2.62208 6.73541 2.79257 6.66479 2.97034 6.66479C3.14811 6.66479 3.3186 6.73541 3.4443 6.86112C3.57001 6.98682 3.64063 7.15731 3.64063 7.33508V17.3H14.3514V7.33508C14.3514 7.15731 14.422 6.98682 14.5477 6.86112C14.6734 6.73541 14.8439 6.66479 15.0217 6.66479C15.1995 6.66479 15.37 6.73541 15.4957 6.86112C15.6214 6.98682 15.692 7.15731 15.692 7.33508V17.9703C15.692 18.1481 15.6214 18.3186 15.4957 18.4443C15.37 18.57 15.1995 18.6406 15.0217 18.6406Z" fill="white"/>
<path d="M17.239 10.224C17.151 10.2241 17.0638 10.2068 16.9824 10.1731C16.9011 10.1395 16.8272 10.0901 16.7649 10.0279L8.9958 2.25878L1.22671 10.0279C1.10029 10.15 0.930971 10.2175 0.755223 10.216C0.579476 10.2145 0.411359 10.144 0.287082 10.0197C0.162805 9.89543 0.0923118 9.72731 0.0907846 9.55156C0.0892574 9.37581 0.156819 9.2065 0.278917 9.08008L8.52034 0.836876C8.64604 0.711217 8.8165 0.640625 8.99423 0.640625C9.17197 0.640625 9.34243 0.711217 9.46813 0.836876L17.7131 9.08008C17.8068 9.17385 17.8705 9.29327 17.8963 9.42326C17.9221 9.55324 17.9088 9.68796 17.8581 9.81039C17.8073 9.93281 17.7214 10.0374 17.6113 10.1111C17.5011 10.1847 17.3715 10.224 17.239 10.224V10.224Z" fill="white"/>
<path d="M10.9401 18.6406H7.05243C6.87466 18.6406 6.70417 18.57 6.57846 18.4443C6.45276 18.3186 6.38214 18.1481 6.38214 17.9703V12.1826C6.38214 12.0048 6.45276 11.8344 6.57846 11.7087C6.70417 11.5829 6.87466 11.5123 7.05243 11.5123H10.9401C11.1179 11.5123 11.2884 11.5829 11.4141 11.7087C11.5398 11.8344 11.6104 12.0048 11.6104 12.1826V17.9703C11.6104 18.1481 11.5398 18.3186 11.4141 18.4443C11.2884 18.57 11.1179 18.6406 10.9401 18.6406ZM7.72272 17.3H10.2698V12.8529H7.72272V17.3Z" fill="white"/>
</g>
<defs>
<clipPath id="clip0_2724_2195">
<rect width="18" height="18" fill="white" transform="translate(0 0.640625)"/>
</clipPath>
</defs>
</svg>
