<svg width="18" height="19" viewBox="0 0 18 19" fill="none" xmlns="http://www.w3.org/2000/svg">
<g clip-path="url(#clip0_2724_2240)">
<path fill-rule="evenodd" clip-rule="evenodd" d="M17.7941 0.767673C17.8585 0.820476 17.9104 0.886922 17.946 0.962213C17.9816 1.0375 18.0001 1.11976 18 1.20305V16.953C17.9999 17.083 17.9548 17.209 17.8724 17.3095C17.7899 17.41 17.6752 17.4788 17.5477 17.5043L11.9227 18.6293C11.85 18.6438 11.775 18.6438 11.7023 18.6293L6.1875 17.5268L0.67275 18.6293C0.591175 18.6456 0.506998 18.6436 0.426286 18.6235C0.345573 18.6033 0.270333 18.5655 0.205987 18.5128C0.141641 18.4601 0.08979 18.3937 0.0541707 18.3186C0.0185515 18.2434 5.02343e-05 18.1612 0 18.078L0 2.32805C7.85048e-05 2.19806 0.0451756 2.07211 0.127624 1.97161C0.210072 1.87112 0.324782 1.80228 0.45225 1.7768L6.07725 0.651798C6.15003 0.637251 6.22497 0.637251 6.29775 0.651798L11.8125 1.7543L17.3273 0.651798C17.4088 0.635391 17.493 0.637274 17.5737 0.657311C17.6544 0.677348 17.7297 0.71504 17.7941 0.767673V0.767673ZM11.25 2.7893L6.75 1.8893V16.4918L11.25 17.3918V2.7893ZM12.375 17.3918L16.875 16.4918V1.8893L12.375 2.7893V17.3918ZM5.625 16.4918V1.8893L1.125 2.7893V17.3918L5.625 16.4918Z" fill="white"/>
</g>
<defs>
<clipPath id="clip0_2724_2240">
<rect width="18" height="18" fill="white" transform="translate(0 0.640625)"/>
</clipPath>
</defs>
</svg>
