<svg width="18" height="19" viewBox="0 0 18 19" fill="none" xmlns="http://www.w3.org/2000/svg">
<path d="M17.5509 10.4226C17.7988 10.4226 18 10.2215 18 9.97316V4.30508C18 2.8904 16.8492 1.7395 15.4345 1.7395H2.56558C1.15089 1.7395 0 2.8904 0 4.30508V11.1036C0 12.5183 1.15089 13.6691 2.56558 13.6691H8.55071V17.0922C8.55071 17.2744 8.66011 17.4381 8.82817 17.5076C8.88359 17.5306 8.94226 17.5417 9.00018 17.5417C9.11709 17.5417 9.23193 17.496 9.31797 17.41L13.0589 13.6691H15.4345C16.8492 13.6691 18 12.5183 18 11.1036V9.50171C18 9.25376 17.7988 9.05259 17.5509 9.05259C17.3026 9.05259 17.1014 9.25376 17.1014 9.50171V11.1036C17.1014 12.0226 16.3536 12.7705 15.4345 12.7705H12.8729C12.7537 12.7705 12.6393 12.8176 12.5551 12.9018L9.44937 16.0076V13.2196C9.44937 12.9713 9.24813 12.7705 9.00018 12.7705H2.56558C1.6468 12.7705 0.898617 12.0226 0.898617 11.1036V4.30508C0.898617 3.38594 1.6468 2.63848 2.56558 2.63848H15.4345C16.3536 2.63848 17.1014 3.38594 17.1014 4.30508V9.97316C17.1014 10.2215 17.3026 10.4226 17.5509 10.4226Z" fill="white"/>
<path d="M13.3825 4.68445H4.61897C4.3708 4.68445 4.16956 4.88569 4.16956 5.13386C4.16956 5.38215 4.3708 5.58328 4.61897 5.58328H13.3825C13.6306 5.58328 13.8319 5.38218 13.8319 5.13386C13.8319 4.88569 13.6306 4.68445 13.3825 4.68445Z" fill="white"/>
<path d="M13.8319 7.56074C13.8319 7.31257 13.6306 7.11133 13.3825 7.11133H4.61897C4.3708 7.11133 4.16956 7.31257 4.16956 7.56074C4.16956 7.80903 4.3708 8.01016 4.61897 8.01016H13.3825C13.6306 8.01012 13.8319 7.80903 13.8319 7.56074Z" fill="white"/>
<path d="M4.61897 9.53833C4.3708 9.53833 4.16956 9.73957 4.16956 9.98775C4.16956 10.236 4.3708 10.4372 4.61897 10.4372H9.67485C9.92307 10.4372 10.1242 10.2361 10.1242 9.98775C10.1242 9.73957 9.92298 9.53833 9.67485 9.53833H4.61897Z" fill="white"/>
</svg>
