<svg width="18" height="19" viewBox="0 0 18 19" fill="none" xmlns="http://www.w3.org/2000/svg">
<path d="M16.2773 1.25232C15.5531 1.4281 14.1188 2.09607 13.3594 2.60935C11.4328 3.91716 9.02813 6.45544 5.07656 11.3492C4.04297 12.6289 4.00781 12.6851 4.00781 13.0015C4.00781 13.9297 5.10469 14.8508 5.84297 14.5414C6.19453 14.4008 9.14766 12.0594 11.3203 10.2101C12.5648 9.15545 14.85 6.85622 15.6305 5.88591C16.7906 4.43044 17.6625 2.26482 17.3742 1.56872C17.2406 1.25232 16.8047 1.12575 16.2773 1.25232ZM16.4531 2.22263C16.5797 2.37732 16.4953 2.8695 16.2563 3.39685C15.8273 4.332 14.1398 6.47654 12.8531 7.70701C11.3273 9.17654 5.76563 13.8594 5.54766 13.8594C5.33672 13.8594 5.02734 13.6765 4.89375 13.4797C4.62656 13.0648 4.65469 13.0086 6.48984 10.85C9.09844 7.77029 10.5891 6.08982 11.4398 5.28122C12.6914 4.07888 14.6461 2.62341 15.4477 2.29294C15.9188 2.09607 16.3266 2.06794 16.4531 2.22263Z" fill="white"/>
<path d="M3.37496 13.9437C3.19918 14.0633 2.74214 14.3094 2.35543 14.4922L1.6523 14.8227L1.38511 15.7297C1.23746 16.2289 1.00543 16.918 0.878864 17.2695C0.555426 18.1273 0.57652 18.1414 1.6523 17.7547C2.11636 17.5859 2.81246 17.3539 3.19918 17.2414L3.9023 17.0305L4.09918 16.5734C4.21168 16.3273 4.45777 15.8422 4.64761 15.5117C4.84449 15.1742 4.98511 14.8508 4.96402 14.7945C4.94292 14.7453 4.8023 14.6469 4.66167 14.5906C4.31714 14.443 4.16246 14.3094 4.00074 13.9789C3.92339 13.8383 3.82496 13.7187 3.77574 13.7258C3.73355 13.7258 3.55074 13.8242 3.37496 13.9437ZM3.17808 15.5961C3.35386 15.7508 3.38902 16.018 3.27652 16.243C3.01636 16.7351 2.24996 16.5594 2.24996 16.0039C2.24996 15.5047 2.80543 15.2586 3.17808 15.5961Z" fill="white"/>
</svg>
