<svg width="18" height="19" viewBox="0 0 18 19" fill="none" xmlns="http://www.w3.org/2000/svg">
<path d="M2.11765 3.81714H11.6471C12.2087 3.81714 12.7473 4.04025 13.1445 4.43738C13.5416 4.83452 13.7647 5.37315 13.7647 5.93478V8.58185L18 4.34655V14.9347L13.7647 10.6995V13.3465C13.7647 13.9082 13.5416 14.4469 13.1445 14.8439C12.7473 15.2411 12.2087 15.4642 11.6471 15.4642H2.11765C1.55601 15.4642 1.01738 15.2411 0.620244 14.8439C0.223108 14.4469 0 13.9082 0 13.3465V5.93478C0 5.37315 0.223108 4.83452 0.620244 4.43738C1.01738 4.04025 1.55601 3.81714 2.11765 3.81714ZM2.11765 4.87596C1.83683 4.87596 1.56751 4.98752 1.36894 5.18608C1.17038 5.38465 1.05882 5.65397 1.05882 5.93478V13.3465C1.05882 13.6274 1.17038 13.8967 1.36894 14.0952C1.56751 14.2939 1.83683 14.4054 2.11765 14.4054H11.6471C11.9279 14.4054 12.1972 14.2939 12.3958 14.0952C12.5943 13.8967 12.7058 13.6274 12.7058 13.3465V5.93478C12.7058 5.65397 12.5943 5.38465 12.3958 5.18608C12.1972 4.98752 11.9279 4.87596 11.6471 4.87596H2.11765ZM16.9411 6.90255L14.2031 9.64067L16.9411 12.3788V6.90255Z" fill="white"/>
</svg>
