<svg width="18" height="19" viewBox="0 0 18 19" fill="none" xmlns="http://www.w3.org/2000/svg">
<g clip-path="url(#clip0_2724_2159)">
<path d="M18 18.6405H16.7143V15.4262C16.7132 14.5739 16.3742 13.757 15.7717 13.1544C15.1692 12.5519 14.3521 12.2129 13.5 12.2119V10.9261C14.693 10.9275 15.8369 11.4021 16.6805 12.2457C17.5241 13.0893 17.9987 14.2331 18 15.4262V18.6405Z" fill="white"/>
<path d="M12.8572 18.6405H11.5714V15.4262C11.5704 14.5739 11.2314 13.757 10.6289 13.1544C10.0263 12.5519 9.20932 12.2129 8.35715 12.2119H4.5C3.64783 12.2129 2.83086 12.5519 2.22828 13.1544C1.62571 13.757 1.28674 14.5739 1.28572 15.4262V18.6405H0V15.4262C0.00136116 14.2331 0.475904 13.0893 1.31952 12.2457C2.16314 11.4021 3.30695 10.9275 4.5 10.9261H8.35715C9.5502 10.9275 10.694 11.4021 11.5376 12.2457C12.3812 13.0893 12.8558 14.2331 12.8572 15.4262V18.6405Z" fill="white"/>
<path d="M11.5714 0.640625V1.92634C12.424 1.92634 13.2415 2.26498 13.8443 2.86778C14.447 3.47057 14.7857 4.28815 14.7857 5.14063C14.7857 5.99311 14.447 6.81068 13.8443 7.41347C13.2415 8.01627 12.424 8.35491 11.5714 8.35491V9.64063C12.7649 9.64063 13.9094 9.16652 14.7534 8.32261C15.5974 7.47869 16.0715 6.3341 16.0715 5.14063C16.0715 3.94715 15.5974 2.80256 14.7534 1.95865C13.9094 1.11473 12.7649 0.640625 11.5714 0.640625Z" fill="white"/>
<path d="M6.42859 1.92634C7.06432 1.92634 7.68576 2.11485 8.21435 2.46805C8.74294 2.82123 9.15492 3.32324 9.39821 3.91057C9.64149 4.49791 9.70515 5.14419 9.58111 5.7677C9.45709 6.39122 9.15096 6.96394 8.70143 7.41347C8.25191 7.86299 7.67917 8.16913 7.05567 8.29315C6.43216 8.41718 5.78587 8.35352 5.19853 8.11024C4.61121 7.86695 4.1092 7.45497 3.75601 6.92638C3.40282 6.39781 3.21431 5.77635 3.21431 5.14063C3.21431 4.28815 3.55295 3.47057 4.15575 2.86778C4.75854 2.26498 5.57611 1.92634 6.42859 1.92634ZM6.42859 0.640625C5.53858 0.640625 4.66854 0.904546 3.92853 1.39901C3.18851 1.89347 2.61173 2.59628 2.27113 3.41855C1.93054 4.24082 1.84143 5.14562 2.01505 6.01853C2.18869 6.89145 2.61727 7.69327 3.24661 8.32261C3.87595 8.95195 4.67777 9.38053 5.55069 9.55415C6.4236 9.72779 7.3284 9.63868 8.15067 9.29809C8.97293 8.95749 9.67573 8.38071 10.1702 7.64069C10.6647 6.90067 10.9286 6.03064 10.9286 5.14063C10.9286 3.94715 10.4545 2.80256 9.61057 1.95865C8.76666 1.11473 7.62207 0.640625 6.42859 0.640625Z" fill="white"/>
</g>
<defs>
<clipPath id="clip0_2724_2159">
<rect width="18" height="18" fill="white" transform="translate(0 0.640625)"/>
</clipPath>
</defs>
</svg>
