<svg width="23" height="16" viewBox="0 0 23 16" fill="none" xmlns="http://www.w3.org/2000/svg">
<path d="M2.54204 0H20.458C22.1481 0 23 0.768417 23 2.3313V13.2975C23 14.8474 22.1481 15.6288 20.458 15.6288H2.54204C0.851852 15.6288 0 14.8474 0 13.2975V2.3313C0 0.768417 0.851852 0 2.54204 0ZM11.4932 11.2007L20.6067 3.99838C20.9313 3.7379 21.1881 3.13878 20.7825 2.6048C20.3904 2.07082 19.6737 2.0578 19.2005 2.3834L11.4932 7.41066L3.79954 2.3834C3.32627 2.0578 2.60964 2.07082 2.21752 2.6048C1.81188 3.13878 2.06879 3.7379 2.3933 3.99838L11.4932 11.2007Z" fill="white"/>
</svg>